#!OML:ASF X:\für Bonn\!DataBase\2005_08_11_Bastian_Final\c3d\Bastian.ASF
:FULLY-SPECIFIED
:DEGREES
79
root -0.220962 7.96587 6.16542 167.987 -8.06156 -175.466
lowerback 25.4761 -2.43257 2.31107
upperback 4.42238 -3.45161 0.352754
thorax -9.33382 -2.08617 0.261128
lowerneck -8.94186 -7.43717 -4.26129
upperneck -8.96541 -10.3328 12.0691
head -0.406629 -5.62444 4.40502
rclavicle 5.0541e-014 -1.19271e-014
rhumerus 67.2814 8.92965 2.01015
rradius 38.8561
rwrist -52.4062
rhand -41.3617 -5.514
rfingers 7.12502
rthumb -14.2802 -35.003
lclavicle 5.0541e-014 -1.19271e-014
lhumerus 63.1491 -9.06607 -8.10715
lradius 32.7048
lwrist 2.88828
lhand -42.0105 10.7559
lfingers 7.12502
lthumb -14.9052 40.1997
rfemur -45.9159 -52.8662 11.4643
rtibia 148.781
rfoot -54.2458 4.49669
rtoes 3.76419
lfemur -59.0088 30.5146 -5.79295
ltibia 150.383
lfoot -44.8999 -29.2564
ltoes 2.30163
80
root -0.222468 7.77 6.16759 167.903 -7.9421 -175.433
lowerback 25.7226 -2.36703 2.31839
upperback 4.4962 -3.38186 0.361853
thorax -9.37597 -2.06283 0.254942
lowerneck -9.0885 -7.45077 -4.27182
upperneck -9.00796 -10.3595 12.0902
head -0.391492 -5.64133 4.40743
rclavicle 6.19214e-014 -2.78299e-015
rhumerus 67.2932 8.66549 2.91084
rradius 39.0262
rwrist -53.3652
rhand -41.5289 -5.81675
rfingers 7.12502
rthumb -14.4413 -35.2943
lclavicle 6.19214e-014 -2.78299e-015
lhumerus 63.1907 -8.91304 -8.71999
lradius 32.5869
lwrist 3.06217
lhand -41.9946 11.1045
lfingers 7.12502
lthumb -14.8899 40.5494
rfemur -43.481 -57.3243 7.99006
rtibia 150.387
rfoot -55.2314 4.8809
rtoes 5.13738
lfemur -59.516 33.57 -4.85119
ltibia 152.072
lfoot -45.4683 -29.6795
ltoes 2.47998
81
root -0.224786 7.58059 6.16961 167.815 -7.80266 -175.4
lowerback 25.9769 -2.30446 2.34129
upperback 4.56931 -3.31365 0.353789
thorax -9.42434 -2.04108 0.221413
lowerneck -9.26982 -7.45069 -4.18382
upperneck -9.0057 -10.3771 12.0396
head -0.366617 -5.65249 4.36362
rclavicle 6.31141e-015 2.22639e-014
rhumerus 67.2917 8.41278 3.9576
rradius 39.2468
rwrist -54.4316
rhand -41.7161 -6.16686
rfingers 7.12502
rthumb -14.6216 -35.6314
lclavicle 6.31141e-015 2.22639e-014
lhumerus 63.2409 -8.71895 -9.1344
lradius 32.4108
lwrist 3.13529
lhand -41.9345 11.2865
lfingers 7.12502
lthumb -14.832 40.7356
rfemur -39.7041 -61.9152 3.18159
rtibia 151.944
rfoot -56.1662 5.20751
rtoes 6.50624
lfemur -59.8945 36.7894 -3.80444
ltibia 153.692
lfoot -45.9697 -30.1385
ltoes 2.84424
82
root -0.227933 7.39654 6.17355 167.742 -7.65598 -175.348
lowerback 26.2349 -2.23899 2.36354
upperback 4.63252 -3.23762 0.379495
thorax -9.483 -2.01505 0.223286
lowerneck -9.41857 -7.46081 -4.1758
upperneck -9.03367 -10.3994 12.013
head -0.350897 -5.66554 4.34547
rclavicle -1.59028e-014 1.19271e-015
rhumerus 67.2899 8.14481 5.15116
rradius 39.5469
rwrist -55.5893
rhand -41.9116 -6.5917
rfingers 7.12502
rthumb -14.81 -36.0425
lclavicle -1.59028e-014 1.19271e-015
lhumerus 63.2399 -8.52611 -9.39323
lradius 32.2392
lwrist 3.27946
lhand -41.8543 11.2589
lfingers 7.12502
lthumb -14.7548 40.7137
rfemur -34.0034 -66.426 -3.45536
rtibia 153.449
rfoot -57.0518 5.18533
rtoes 7.69275
lfemur -60.1801 40.0551 -2.67631
ltibia 155.225
lfoot -46.3257 -30.6774
ltoes 3.59233
83
root -0.232317 7.2218 6.17658 167.662 -7.49282 -175.317
lowerback 26.4844 -2.16112 2.39407
upperback 4.71083 -3.14868 0.380403
thorax -9.52142 -1.98463 0.187176
lowerneck -9.58643 -7.47093 -4.10914
upperneck -9.05783 -10.429 11.9714
head -0.334422 -5.68398 4.30976
rclavicle -2.78299e-014 2.10712e-014
rhumerus 67.2443 7.84454 6.06055
rradius 39.7665
rwrist -56.5318
rhand -41.994 -7.02669
rfingers 7.12502
rthumb -14.8893 -36.4716
lclavicle -2.78299e-014 2.10712e-014
lhumerus 63.2646 -8.29757 -9.55073
lradius 32.0901
lwrist 3.44522
lhand -41.7201 11.1049
lfingers 7.12502
lthumb -14.6255 40.5691
rfemur -25.3383 -70.5233 -13.0177
rtibia 154.877
rfoot -57.8285 4.89194
rtoes 8.47721
lfemur -60.3363 43.2991 -1.531
ltibia 156.666
lfoot -46.6428 -31.0841
ltoes 4.23726
84
root -0.236844 7.05791 6.18055 167.581 -7.31017 -175.268
lowerback 26.7666 -2.09364 2.42792
upperback 4.76412 -3.06737 0.388146
thorax -9.60421 -1.95669 0.16127
lowerneck -9.71258 -7.46109 -4.04548
upperneck -9.07133 -10.4296 11.9317
head -0.323674 -5.68728 4.27866
rclavicle -1.38155e-014 -9.54166e-015
rhumerus 67.2445 7.55274 6.61341
rradius 39.8719
rwrist -57.1575
rhand -41.9817 -7.4378
rfingers 7.12502
rthumb -14.8775 -36.8836
lclavicle -1.38155e-014 -9.54166e-015
lhumerus 63.2422 -8.12063 -9.66516
lradius 31.9687
lwrist 3.73459
lhand -41.5545 10.8137
lfingers 7.12502
lthumb -14.466 40.2895
rfemur -13.4677 -73.6782 -25.6204
rtibia 156.2
rfoot -58.4164 4.36224
rtoes 9.08369
lfemur -60.3702 46.456 -0.281659
ltibia 158.012
lfoot -46.8598 -31.4932
ltoes 4.96201
85
root -0.241726 6.90565 6.18466 167.5 -7.1367 -175.185
lowerback 27.0217 -2.0207 2.49513
upperback 4.84397 -2.97404 0.410758
thorax -9.64273 -1.92603 0.126173
lowerneck -9.85726 -7.46228 -3.92844
upperneck -9.11401 -10.4518 11.8432
head -0.323958 -5.70421 4.21962
rclavicle -2.98177e-016 -5.56597e-015
rhumerus 67.202 7.18891 6.90362
rradius 39.9001
rwrist -57.6158
rhand -41.8502 -7.79113
rfingers 7.12502
rthumb -14.7508 -37.2463
lclavicle -2.98177e-016 -5.56597e-015
lhumerus 63.2524 -7.92184 -9.79848
lradius 31.8621
lwrist 4.13371
lhand -41.3935 10.5096
lfingers 7.12502
lthumb -14.3108 39.9964
rfemur 1.74341 -75.6768 -41.3664
rtibia 157.419
rfoot -58.8256 3.48998
rtoes 9.20884
lfemur -60.3963 49.3909 0.975038
ltibia 159.26
lfoot -46.9407 -31.8349
ltoes 5.53812
86
root -0.246706 6.76592 6.18848 167.429 -6.95499 -175.134
lowerback 27.2887 -1.94748 2.53869
upperback 4.904 -2.88426 0.418453
thorax -9.70916 -1.89521 0.0897996
lowerneck -9.98838 -7.45908 -3.84733
upperneck -9.11998 -10.4632 11.7923
head -0.310825 -5.71268 4.18038
rclavicle -1.31198e-014 -7.95139e-016
rhumerus 67.175 6.83821 6.92165
rradius 39.8785
rwrist -57.9808
rhand -41.714 -7.9975
rfingers 7.12502
rthumb -14.6197 -37.4622
lclavicle -1.31198e-014 -7.95139e-016
lhumerus 63.2735 -7.81358 -10.0753
lradius 31.8169
lwrist 4.79334
lhand -41.2681 10.1925
lfingers 7.12502
lthumb -14.19 39.6879
rfemur 18.0019 -76.38 -58.0966
rtibia 158.549
rfoot -59.0362 2.49741
rtoes 9.20929
lfemur -60.3216 52.134 2.21673
ltibia 160.396
lfoot -46.94 -32.1485
ltoes 6.20563
87
root -0.251025 6.64042 6.19125 167.357 -6.80761 -175.1
lowerback 27.5441 -1.88229 2.54842
upperback 4.97738 -2.81761 0.424132
thorax -9.75339 -1.87518 0.0773267
lowerneck -10.1293 -7.44684 -3.73656
upperneck -9.14899 -10.4679 11.7223
head -0.307202 -5.72057 4.12995
rclavicle 8.24956e-015 -1.39149e-014
rhumerus 67.1755 6.46476 6.8277
rradius 39.8329
rwrist -58.3553
rhand -41.6038 -8.10963
rfingers 7.12502
rthumb -14.5134 -37.582
lclavicle 8.24956e-015 -1.39149e-014
lhumerus 63.2721 -7.77861 -10.5436
lradius 31.8367
lwrist 5.65046
lhand -41.2258 10.0217
lfingers 7.12502
lthumb -14.1493 39.5199
rfemur 33.397 -75.9071 -73.8682
rtibia 159.557
rfoot -59.1446 1.44935
rtoes 8.97298
lfemur -60.317 54.4821 3.24221
ltibia 161.404
lfoot -46.8349 -32.3141
ltoes 6.63929
88
root -0.255449 6.52902 6.19418 167.298 -6.67538 -175.028
lowerback 27.7797 -1.8277 2.60581
upperback 5.04238 -2.74831 0.438518
thorax -9.79783 -1.85448 0.0452939
lowerneck -10.2006 -7.43906 -3.67625
upperneck -9.21579 -10.4716 11.7056
head -0.321531 -5.72995 4.11201
rclavicle -4.14466e-014 6.36111e-015
rhumerus 67.1554 6.123 6.57888
rradius 39.7485
rwrist -58.6073
rhand -41.5931 -8.05331
rfingers 7.12502
rthumb -14.5031 -37.5264
lclavicle -4.14466e-014 6.36111e-015
lhumerus 63.2867 -7.81877 -11.1755
lradius 31.9423
lwrist 6.63432
lhand -41.2126 10.0197
lfingers 7.12502
lthumb -14.1365 39.5188
rfemur 44.9256 -74.7995 -85.601
rtibia 160.447
rfoot -59.13 0.420341
rtoes 8.77083
lfemur -60.3212 56.5834 4.27605
ltibia 162.304
lfoot -46.6031 -32.5322
ltoes 7.07405
